<svg width="19" height="18" viewBox="0 0 19 18" fill="none" xmlns="http://www.w3.org/2000/svg">
<path d="M18.0064 3.00359L12.6239 16.8931C12.2839 17.7707 11.3047 18.2216 10.4376 17.8994C10.2229 17.8181 10.0281 17.6953 9.86549 17.5386C9.70288 17.3819 9.57598 17.1948 9.49277 16.989L7.78661 12.8688C7.46598 12.0779 6.83038 11.4405 6.01896 11.0963L1.91223 9.38516C1.0578 9.02842 0.669005 8.0394 1.04243 7.17562C1.13075 6.96706 1.2615 6.77729 1.42709 6.61731C1.59269 6.45733 1.78985 6.33032 2.00717 6.24361L15.8554 0.84501C16.7297 0.503818 17.6999 0.932251 18.0209 1.80294C18.1628 2.18818 18.1574 2.61489 18.0073 3.00359H18.0064Z" fill="black"/>
</svg>
