<svg width="18" height="17" viewBox="0 0 18 17" fill="none" xmlns="http://www.w3.org/2000/svg">
<path d="M16.7199 3.1465L16.7326 3.13113L13.1159 0.201629L11.9767 1.6067L13.8456 3.12028C13.3819 3.40201 13.0138 3.81671 12.789 4.31046C12.5642 4.80422 12.4932 5.35418 12.5852 5.88884C12.7208 6.70168 13.2805 7.40422 14.0047 7.79753C14.8139 8.23786 15.5237 8.19718 16.1548 7.97294L16.1412 13.5625C16.1423 13.7122 16.1061 13.8598 16.0358 13.992C15.9654 14.1242 15.8633 14.2368 15.7385 14.3195C15.6137 14.4023 15.4703 14.4526 15.3212 14.466C15.1721 14.4794 15.022 14.4554 14.8845 14.3961C14.7768 14.3501 14.6791 14.2834 14.5969 14.1999C14.5133 14.1162 14.4471 14.0168 14.4019 13.9074C14.3568 13.798 14.3336 13.6808 14.3338 13.5625L14.3546 11.7542C14.3555 11.3983 14.2859 11.0457 14.1498 10.7169C14.0137 10.388 13.8138 10.0894 13.5617 9.83824C13.3098 9.5858 13.0106 9.38551 12.6812 9.24882C12.3518 9.11214 11.9987 9.04174 11.6421 9.04167H10.7379V1.80833C10.7379 1.32873 10.5474 0.868777 10.2083 0.529648C9.86917 0.19052 9.40921 0 8.92962 0H2.60045C2.12085 0 1.66089 0.19052 1.32176 0.529648C0.982634 0.868777 0.792114 1.32873 0.792114 1.80833V14.4667C0.792114 14.9463 0.982634 15.4062 1.32176 15.7454C1.66089 16.0845 2.12085 16.275 2.60045 16.275H8.92962C9.40921 16.275 9.86917 16.0845 10.2083 15.7454C10.5474 15.4062 10.7379 14.9463 10.7379 14.4667V10.85H11.6421C11.7651 10.85 11.8835 10.8744 11.9956 10.9205C12.2108 11.0147 12.3824 11.1869 12.4758 11.4024C12.5227 11.5138 12.5466 11.6334 12.5463 11.7542L12.5246 13.5625C12.5246 13.9296 12.596 14.2849 12.738 14.6186C12.8745 14.9432 13.0707 15.2334 13.3175 15.4784C13.5685 15.7321 13.8675 15.9332 14.1971 16.0699C14.5267 16.2067 14.8802 16.2764 15.2371 16.275C15.6042 16.275 15.9586 16.2045 16.2931 16.0616C16.6168 15.926 16.908 15.7298 17.153 15.482C17.4061 15.2307 17.6069 14.9316 17.7436 14.6021C17.8803 14.2726 17.9503 13.9192 17.9496 13.5625L17.9713 5.425C17.9704 4.97076 17.8553 4.52404 17.6367 4.1259C17.418 3.72776 17.1028 3.39097 16.7199 3.1465ZM8.92962 4.52083H2.60045V1.80833H8.92962V4.52083ZM15.2588 6.32917C15.019 6.32917 14.789 6.23391 14.6194 6.06434C14.4499 5.89478 14.3546 5.6648 14.3546 5.425C14.3546 5.1852 14.4499 4.95522 14.6194 4.78566C14.789 4.61609 15.019 4.52083 15.2588 4.52083C15.4986 4.52083 15.7286 4.61609 15.8981 4.78566C16.0677 4.95522 16.1629 5.1852 16.1629 5.425C16.1629 5.6648 16.0677 5.89478 15.8981 6.06434C15.7286 6.23391 15.4986 6.32917 15.2588 6.32917Z" fill="black"/>
</svg>
