<svg width="22" height="23" viewBox="0 0 22 23" fill="none" xmlns="http://www.w3.org/2000/svg">
<path d="M16.2732 8.23327C16.2732 6.79465 15.7017 5.41494 14.6844 4.39768C13.6672 3.38042 12.2875 2.80893 10.8489 2.80893C9.41023 2.80893 8.03053 3.38042 7.01327 4.39768C5.996 5.41494 5.42451 6.79465 5.42451 8.23327C5.42451 14.5617 2.71234 16.3698 2.71234 16.3698H18.9854C18.9854 16.3698 16.2732 14.5617 16.2732 8.23327Z" stroke="black" stroke-width="2.16974" stroke-linecap="round" stroke-linejoin="round"/>
<path d="M12.4134 19.9857C12.2545 20.2597 12.0264 20.4871 11.7519 20.6452C11.4774 20.8033 11.1662 20.8865 10.8494 20.8865C10.5327 20.8865 10.2215 20.8033 9.94697 20.6452C9.67248 20.4871 9.44434 20.2597 9.2854 19.9857" stroke="black" stroke-width="2.16974" stroke-linecap="round" stroke-linejoin="round"/>
<circle cx="17" cy="5" r="5" fill="#FF0000"/>
</svg>
